<?xml version="1.0" encoding="UTF-8"?>
<svg id="Layer_1" data-name="Layer 1" xmlns="http://www.w3.org/2000/svg" xmlns:xlink="http://www.w3.org/1999/xlink" viewBox="0 0 90 50">
  <defs>
    <style>
      .cls-1 {
        fill: #5e3989;
      }

      .cls-1, .cls-2, .cls-3, .cls-4 {
        stroke-width: 0px;
      }

      .cls-5 {
        clip-path: url(#clippath);
      }

      .cls-2 {
        fill: none;
      }

      .cls-6 {
        clip-path: url(#clippath-1);
      }

      .cls-3 {
        fill: #231f20;
      }

      .cls-4 {
        fill: #a90533;
      }
    </style>
    <clipPath id="clippath">
      <rect class="cls-2" x="-.02" y="8.62" width="88.71" height="34.28"/>
    </clipPath>
    <clipPath id="clippath-1">
      <rect class="cls-2" x="-16.95" y="5.36" width="128.18" height="40.06"/>
    </clipPath>
  </defs>
  <g class="cls-5">
    <g class="cls-6">
      <path class="cls-4" d="M4.37,28.28c-.11-.12-.26-.31-.3-.36,0,0-2.75-3.77-2.97-5.69,0-.02,0-.05,0-.08.06,0,.12.02.18.03.58.08,1.3.15,1.87.38.09.04.17.08.25.12l.03.02c.12.22.26.45.41.69.1.16.19.31.29.44v.07c-.02.07-.03.14-.04.2-.15.73-.09,1.23-.09,2.94.04.22.11.46.19.72.05.16.11.33.18.51"/>
      <path class="cls-1" d="M34.77,36.09c-.11.56-6.51,1.86-8.79,2.18-.15.02-.28.04-.4.05-.47.16-.87-.56-1.12-1.72.07-.2.11-.4.12-.61,0-.23-.01-.47-.05-.71-.02-.12-.04-.25-.07-.37-.11-.57-.26-1.16-.26-1.78,0-.07,0-.14,0-.21,0-.11,0-.21,0-.32,0-.11,0-.21,0-.32,0-.19-.02-.38-.04-.57,0-.11-.02-.22-.03-.32-.03-.28-.06-.57-.08-.89-.12-.66-.31-1.25-.55-1.72-.04-.08-.08-.15-.12-.22-.04-.07-.09-.14-.13-.2-.02-.03-.05-.06-.07-.09-.05-.06-.1-.12-.15-.17-.07-.08-.15-.15-.23-.21-.03-.02-.05-.04-.08-.06-.04-.02-.07-.04-.11-.06-.22-.11-.45-.16-.7-.12-.55.05-5.26,1.04-5.38,1.07-.07.02-.14.1-.18.21-.08.2-.11.52-.09.93,0,.12.02.24.03.37,0,.06.02.13.03.2.02.14.05.28.08.42.19.87.56,1.9,1.18,2.88,0,.64.08,1.27.21,1.86.1.43.22.84.35,1.22-.04.1-.06.21-.06.33,0,.31.14.68.31,1.01.17.34.37.65.49.87.11.2.15.32.04.31-.1.02-.62.12-1.36.25-.06,0-.11.02-.17.03-.66.12-1.47.26-2.32.4-2.36.4-4.98.8-5.28.69-2.61-.38-1.34-2.34-2.24-3.71-1.13-2.57-1.22-4.5-1.29-5.48-.07-.36-.88-.95-1.42-2.08-.18-.4-.34-.77-.47-1.11-.07-.18-.13-.35-.18-.51-.09-.27-.15-.51-.19-.73,0-1.71-.06-2.21.09-2.94.01-.06.03-.13.04-.2v-.07c-.01-.37-.14-.65-.35-.87-.05-.05-.1-.1-.16-.14-.06-.05-.12-.09-.19-.13l-.04-.02c-.08-.04-.17-.08-.25-.12-.57-.23-1.29-.3-1.87-.38-.06,0-.12-.02-.18-.02-.69-.1-1.12-.25-.75-.76.06-.08.28-.26.62-.51.31-.23.73-.51,1.21-.83.41-.27.86-.56,1.34-.87.35-.22.71-.45,1.08-.69.11-.07.21-.13.32-.2.37-.23.75-.46,1.12-.69.16-.3.39-.54.66-.74.1-.08.21-.15.32-.21.15-.09.3-.17.46-.24.06-.03.12-.06.19-.08.45-.19.91-.34,1.28-.5h.02c.09-.05.18-.09.26-.13h0s.05-.03.08-.04c.24-.26.51-.58.8-.91.05-.06.11-.12.16-.18.06-.06.11-.13.17-.19.29-.32.6-.64.9-.92.27.11.53.24.78.37,3.76,1.99,6.75,5.04,7.93,9.21.46,1.64,1.18-.23,1.13-1.03,0-.08-.01-.16-.02-.24.92-1.17,2.35-2.17,3.53-2.89,1.62-.99,3.47-1.72,5.38-1.8,1.56-.07,3.22.17,4.47,1.14-.03.01-.06.03-.1.04-.13.05-.25.11-.38.17-.12.06-.24.12-.35.19-.05.03-.09.06-.14.09-.41.28-.67.64-.57,1.11.02.11.07.29.13.51.22.76.6,2.03.65,2.65.02.2.02.39,0,.57,0,.12-.02.24-.03.35v.03c-.05.34-.1.61-.06.78.02.11.03.24.03.38,0,.08,0,.17.01.27,0,.03,0,.06,0,.09,0,.04,0,.07.01.11,0,.06.02.11.03.17v.04c.02.07.04.15.07.23.02.06.04.12.06.18.09.23.2.42.31.58.02.03.03.05.05.08.15.23.28.38.31.49,0,.05.02.1.02.17,0,.04,0,.09,0,.14v.06c.01.27,0,.64-.02,1.12.03.46.14.86.25,1.2.11.34.21.61.22.79-.48,1.16,1,4.27-.33,5.3"/>
      <path class="cls-4" d="M37.63,22.77c-.01,2.67-1.15,5.09-2.75,7.22-.11-.34-.22-.74-.25-1.2.02-.47.03-.85.02-1.12.03-.05.07-.09.1-.14.03-.05.07-.1.1-.15.07-.1.14-.2.21-.31.12-.17.23-.35.34-.53.19-.3.36-.62.51-.93.04-.08.08-.16.11-.24.22-.48.41-.97.55-1.48.2-.7.21-1.45.07-2.18-.02-.12-.05-.24-.08-.36-.02-.06-.03-.12-.05-.18-.07-.24-.16-.48-.25-.71-.1-.23-.21-.45-.34-.67-.06-.11-.13-.21-.2-.32-.24-.36-.51-.69-.81-.97-.08-.07-.16-.14-.24-.21-.04-.03-.08-.07-.13-.1-1.26-.97-2.91-1.21-4.47-1.14-1.91.08-3.76.82-5.38,1.8-1.19.72-2.62,1.72-3.53,2.89,0,.08.01.16.02.24.06.8-.66,2.67-1.13,1.03-1.17-4.17-4.17-7.22-7.93-9.21-.25-.13-.51-.26-.78-.37-2.6-1.11-5.86-1.25-7.8.72-.45.46-.82,1.02-1.1,1.72-.18.44-.3.87-.38,1.31-.02.09-.03.17-.04.26-.02.17-.04.35-.05.52,0,.09,0,.17,0,.26,0,.09,0,.18,0,.27.01.51.08,1.02.2,1.53-.48.32-.9.6-1.21.83-.36-1.89-.3-3.93.33-6.15.59-2.09,1.8-4.39,3.88-5.28,1.92-.83,4.04-.47,5.94.2,1.15.4,2.26.98,3.3,1.71,2.99,2.08,5.39,5.31,6.42,8.63.09.3.16.6.21.9,1.61-3.38,4.94-5.5,8.73-5.97.03,0,.06,0,.1-.01,1.97-.23,3.66.36,4.95,1.44.44.37.84.8,1.18,1.27,1.04,1.42,1.62,3.26,1.61,5.16"/>
      <path class="cls-4" d="M25.97,38.27c-1.58,1.15-3.24,2.2-4.96,3.11l-1.08.54c-.53.25-1.06.49-1.6.71-.11.08-.42.27-.79.21-.25-.04-.42-.18-.64-.36-.16-.13-.38-.35-.58-.67-.38-.62-.81-1.23-1.26-1.83.84-.14,1.66-.28,2.32-.4.06,0,.11-.02.17-.03.75-.13,1.27-.23,1.36-.25.11.01.06-.11-.04-.31.61-.26,1.22-.54,1.82-.84,1.33-.65,2.63-1.39,3.88-2.17,0,.21-.04.41-.12.61.25,1.16.66,1.88,1.12,1.72.11-.01.24-.03.4-.05"/>
      <path class="cls-1" d="M20.84,19.98c.09.3.16.6.21.9,1.61-3.38,4.94-5.5,8.73-5.97-1.6-.62-3.48-.68-4.29-1.16-.36-.24-1.12-.65-2.29-1.22-.29-.07-1.04-.98-2.49-1.06-1.75-.8-3.78-1.76-3.9-1.78h-.03s-1.03.7-2.34,1.67c2.99,2.08,5.39,5.31,6.42,8.62"/>
      <path class="cls-3" d="M46.04,10.25c1.93,0,2.67,1.14,2.67,2.94v1.18c0,1.61-.63,2.49-2.06,2.76,1.44.22,2.06,1.18,2.06,2.62v2.06c0,.51.06,1.14.35,1.56h-.44c-.26-.41-.32-.99-.32-1.56v-2.06c0-1.93-1.15-2.44-2.83-2.44h-1.59v6.05h-.41v-13.12h2.57ZM45.47,16.93c1.8,0,2.83-.47,2.83-2.49v-1.2c0-1.59-.61-2.59-2.28-2.59h-2.15v6.28h1.59Z"/>
      <polygon class="cls-3" points="56.1 16.53 56.1 16.91 52.28 16.91 52.28 22.98 56.82 22.98 56.82 23.37 51.88 23.37 51.88 10.25 56.82 10.25 56.82 10.65 52.28 10.65 52.28 16.53 56.1 16.53"/>
      <polygon class="cls-3" points="63.67 16.85 63.67 17.24 60.04 17.24 60.04 23.37 59.64 23.37 59.64 10.25 64.4 10.25 64.4 10.65 60.04 10.65 60.04 16.85 63.67 16.85"/>
      <path class="cls-3" d="M67.56,20.15c0,1.57.56,2.94,2.28,2.94s2.28-1.37,2.28-2.94v-9.89h.39v9.88c0,1.8-.7,3.34-2.67,3.34s-2.68-1.54-2.68-3.34v-9.88h.41v9.89Z"/>
      <path class="cls-3" d="M80.75,13.48v.86h-.41v-.88c0-1.59-.59-2.92-2.3-2.92s-2.32,1.33-2.32,2.92v6.71c0,1.59.59,2.9,2.32,2.9s2.3-1.31,2.3-2.9v-2.98h-2.02v-.37h2.43v3.34c0,1.82-.74,3.32-2.72,3.32s-2.7-1.5-2.7-3.32v-6.67c0-1.82.74-3.32,2.7-3.32s2.72,1.5,2.72,3.32"/>
      <polygon class="cls-3" points="87.81 16.53 87.81 16.91 83.99 16.91 83.99 22.98 88.53 22.98 88.53 23.37 83.58 23.37 83.58 10.25 88.53 10.25 88.53 10.65 83.99 10.65 83.99 16.53 87.81 16.53"/>
      <polygon class="cls-3" points="43.47 27.43 45.52 27.43 45.52 32.75 47.73 32.75 47.73 27.43 49.78 27.43 49.78 40.5 47.73 40.5 47.73 34.62 45.52 34.62 45.52 40.5 43.47 40.5 43.47 27.43"/>
      <path class="cls-3" d="M53.63,37.4v-6.87c0-2.09,1.1-3.29,3.12-3.29s3.12,1.2,3.12,3.29v6.87c0,2.09-1.1,3.29-3.12,3.29s-3.12-1.19-3.12-3.29M57.82,37.54v-7.14c0-.93-.41-1.29-1.06-1.29s-1.06.36-1.06,1.29v7.14c0,.93.41,1.29,1.06,1.29s1.06-.36,1.06-1.29"/>
      <path class="cls-3" d="M63.64,37.4v-9.98h2.05v10.12c0,.93.39,1.27,1.05,1.27s1.05-.34,1.05-1.27v-10.12h1.98v9.98c0,2.09-1.05,3.29-3.06,3.29s-3.06-1.2-3.06-3.29"/>
      <path class="cls-3" d="M73.34,37.4v-.75h1.94v.9c0,.93.41,1.27,1.06,1.27s1.08-.34,1.08-1.31c0-1.08-.45-1.76-1.79-2.93-1.72-1.51-2.3-2.6-2.3-4.09,0-2.06,1.06-3.25,3.06-3.25s2.99,1.2,2.99,3.29v.54h-1.94v-.67c0-.93-.37-1.29-1.03-1.29s-1.05.35-1.05,1.25c0,.95.47,1.62,1.81,2.8,1.72,1.51,2.28,2.58,2.28,4.2,0,2.13-1.08,3.32-3.1,3.32s-3.03-1.2-3.03-3.29"/>
      <polygon class="cls-3" points="83.09 27.43 88.69 27.43 88.69 29.3 85.14 29.3 85.14 32.75 87.96 32.75 87.96 34.62 85.14 34.62 85.14 38.64 88.69 38.64 88.69 40.5 83.09 40.5 83.09 27.43"/>
    </g>
  </g>
</svg>